<?xml version="1.0" standalone="no"?>
<!DOCTYPE svg PUBLIC "-//W3C//DTD SVG 1.1//EN"
"http://www.w3.org/Graphics/SVG/1.1/DTD/svg11.dtd">
<svg width="500" height="500" version="1.1"
xmlns="http://www.w3.org/2000/svg">
 
<path d="M 0 300 C 0 300 0 300 20 300 S 20 300, 40 300 S 40 300, 60 300 S 60 285, 80 285 S 80 233, 100 233 S 100 290, 120 290 S 120 255, 140 255 S 140 300, 160 300 S 160 289, 180 289 S 180 279, 200 279 S 200 299, 220 299 S 220 254, 240 254 S 240 285, 260 285 S 260 270, 280 270 S 280 300, 300 300 S 300 300, 320 300 S 320 296, 340 296 S 340 280, 360 280 S 360 230, 380 230 S 380 133, 400 133 S 400 270, 420 270 S 420 131, 440 131 S 440 137, 460 137 S 460 282, 480 282 S 480 300, 500 300 S 500 300, 520 300 S 520 289, 540 289 S 540 44, 560 44 S 560 172, 580 172" stroke="black" fill="transparent"/>
</svg>
